<?xml version="1.0" encoding="UTF-8" standalone="no"?>
<!-- Generator: Adobe Illustrator 19.1.0, SVG Export Plug-In . SVG Version: 6.00 Build 0)  -->

<svg
   xmlns:dc="http://purl.org/dc/elements/1.1/"
   xmlns:cc="http://creativecommons.org/ns#"
   xmlns:rdf="http://www.w3.org/1999/02/22-rdf-syntax-ns#"
   xmlns:svg="http://www.w3.org/2000/svg"
   xmlns="http://www.w3.org/2000/svg"
   xmlns:sodipodi="http://sodipodi.sourceforge.net/DTD/sodipodi-0.dtd"
   xmlns:inkscape="http://www.inkscape.org/namespaces/inkscape"
   version="1.1"
   id="DESIGNS"
   x="0px"
   y="0px"
   width="32px"
   height="32px"
   viewBox="0 0 32 32"
   style="enable-background:new 0 0 32 32;"
   xml:space="preserve"
   sodipodi:docname="pointer.svg"
   inkscape:version="0.92.2 2405546, 2018-03-11"><defs
   id="defs13" /><sodipodi:namedview
   pagecolor="#ffffff"
   bordercolor="#666666"
   borderopacity="1"
   objecttolerance="10"
   gridtolerance="10"
   guidetolerance="10"
   inkscape:pageopacity="0"
   inkscape:pageshadow="2"
   inkscape:window-width="1592"
   inkscape:window-height="1728"
   id="namedview11"
   showgrid="false"
   inkscape:zoom="7.375"
   inkscape:cx="-15.254237"
   inkscape:cy="16"
   inkscape:window-x="1600"
   inkscape:window-y="30"
   inkscape:window-maximized="0"
   inkscape:current-layer="DESIGNS" />
<title
   property="dc:title"
   id="title2">to locate</title><desc
   property="dc:description"
   id="desc4">An icon for &quot;locate&quot; from the Lines and Angles series on to [icon]. Downloaded from http://www.toicon.com/icons/lines-and-angles_locate by 127.0.0.1 on 2017-07-10. Licensed CC-BY, see http://toicon.com/license/ for details.</desc>
<path
   class="linesandangles_een"
   d="M16,8c-2.757,0-5,2.243-5,5s2.243,5,5,5s5-2.243,5-5S18.757,8,16,8z M16,16  c-1.654,0-3-1.346-3-3s1.346-3,3-3s3,1.346,3,3S17.654,16,16,16z M16,6c3.86,0,7,3.14,7,7c0,5.271-4.719,10.256-7.009,12.365  C13.299,22.889,9,17.901,9,13C9,9.14,12.14,6,16,6 M16,4c-4.971,0-9,4.029-9,9c0,8,9,15,9,15s9-6.984,9-15C25,8.029,20.971,4,16,4  L16,4z"
   style="fill: #111918;"
   id="path6" />
<metadata
   id="metadata8"><work
     rdf:about=""><format>image/svg+xml</format><type
       rdf:resource="http://purl.org/dc/dcmitype/StillImage" /><license
       rdf:resource="http://creativecommons.org/licenses/by/4.0/" /><attributionname>Shannon E Thomas</attributionname><attributionurl>http://www.toicon.com/icons/lines-and-angles_locate</attributionurl></work><rdf:RDF><cc:Work
       rdf:about=""><dc:format>image/svg+xml</dc:format><dc:type
         rdf:resource="http://purl.org/dc/dcmitype/StillImage" /></cc:Work></rdf:RDF></metadata><path
   style="opacity:0.61699997;fill:#0000ff;stroke-width:0.13580674;stroke-linecap:round;stroke-miterlimit:4;stroke-dasharray:none"
   d="m 14.631258,23.911864 c -2.214975,-2.442329 -3.30308,-3.982703 -4.3252,-6.122967 -2.1184967,-4.436017 -1.39099,-8.3693691 1.959437,-10.5939273 1.209168,-0.8028426 2.123481,-1.0616535 3.748064,-1.0609494 1.215453,5.267e-4 1.557826,0.052936 2.340387,0.3582589 1.167341,0.4554476 1.915208,0.9724705 2.787958,1.927398 2.736298,2.9939448 2.263964,7.5514668 -1.298908,12.5331218 -0.982098,1.373182 -3.610267,4.213303 -3.898874,4.213303 -0.09646,0 -0.687249,-0.564407 -1.312864,-1.254238 z m 3.246255,-6.231447 c 0.953086,-0.351372 2.109277,-1.426997 2.653357,-2.468466 0.400742,-0.767094 0.431281,-0.921462 0.431551,-2.181443 2.55e-4,-1.18872 -0.04466,-1.451841 -0.364207,-2.133666 C 20.132032,9.9021417 19.144023,8.915648 18.112297,8.4147379 17.393477,8.0657455 17.155843,8.0209113 16.013559,8.0187708 c -1.112524,-0.00208 -1.393043,0.046574 -2.057647,0.3569206 -1.027293,0.4797094 -1.872844,1.2848443 -2.431784,2.3155496 -0.439553,0.81055 -0.459721,0.910203 -0.459721,2.271471 0,1.285773 0.03689,1.49885 0.380703,2.198994 1.186922,2.417051 3.864386,3.465455 6.432403,2.518711 z"
   id="path4525"
   inkscape:connector-curvature="0" /></svg>